<svg width="433" height="311" viewBox="0 0 433 311" fill="none" xmlns="http://www.w3.org/2000/svg">
<path fill-rule="evenodd" clip-rule="evenodd" d="M399.996 36.5858C397.78 32.7327 391.914 34.2739 391.914 38.7403C396.127 113.883 395.909 191.337 391.914 270.727C391.914 275.177 397.78 276.735 399.996 272.866C418.675 240.453 433 199.595 433 154.726C433 109.857 418.675 69.0145 399.996 36.5858Z" fill="#007AFF"/>
<path fill-rule="evenodd" clip-rule="evenodd" d="M336.244 65.2972C339.521 123.927 339.35 184.319 336.244 246.234C336.244 249.71 340.817 250.92 342.549 247.901C357.107 222.613 368.296 190.766 368.296 155.758C368.296 120.766 357.107 88.9032 342.549 63.6302C340.817 60.6107 336.244 61.8059 336.244 65.2972Z" fill="#007AFF"/>
<path d="M286.289 165.695C277.47 163.624 269.1 160.082 261.422 155.02C272.704 156.069 284.893 152.657 295.559 145.18C285.041 144.155 274.913 141.202 265.67 136.229C266.279 122.683 261.75 109.838 252.042 101.211C233.409 84.6525 202.68 89.8538 183.411 112.843C180.686 116.094 178.34 119.526 176.345 123.083C149.746 96.4074 138.777 57.751 143.224 17.7879C135.161 21.3754 127.506 27.0398 121.128 34.6494C109.03 49.0825 104.31 67.1261 107.107 82.6248C101.76 77.4829 98.1226 70.9938 96.1855 63.8337L95.7364 64.3696C78.8403 84.5278 76.3717 111.679 88.6133 129.227C84.9798 127.65 81.5831 125.504 78.5113 122.774C76.3379 120.843 74.4248 118.707 72.7716 116.396C63.2184 136.737 65.588 159.85 80.0904 173.298C59.1775 174.194 39.0458 167.914 23.2379 153.866C20.5139 151.446 17.9908 148.861 15.6684 146.127C20.7028 171.218 32.6735 193.855 51.7271 210.787C113.814 265.96 200.892 232.727 246.976 177.745C248.473 175.959 249.949 174.122 251.381 172.278C262.9 172.26 274.754 170.031 286.252 165.709L286.289 165.695Z" fill="#007AFF"/>
</svg>
