<svg width="24" height="24" viewBox="0 0 24 24" fill="none" xmlns="http://www.w3.org/2000/svg">
<path fill-rule="evenodd" clip-rule="evenodd" d="M20.132 2.73352C20.4425 2.42216 20.9458 2.42216 21.2671 2.73352C21.5776 3.04488 21.5776 3.56024 21.2671 3.8716L3.91932 21.2649C3.7694 21.4152 3.55523 21.5 3.35177 21.5C3.14831 21.5 2.94485 21.4152 2.78422 21.2649C2.47367 20.9428 2.47367 20.4382 2.78422 20.1268L5.52559 17.3782H5.30072C3.87649 17.3782 2.83776 16.369 2.64501 14.8014C2.43084 13.2339 2.47367 10.5498 2.64501 9.12179C2.84847 7.64014 3.94074 6.62016 5.30072 6.62016H7.15329L10.6871 3.72129C11.1154 3.35624 11.8757 3.01267 12.4647 3.00194C13.5356 3.00194 14.5207 3.7535 14.8741 4.95599C15.0133 5.46061 15.0669 5.96523 15.1097 6.44838L15.1954 7.13552C15.1984 7.15795 15.2013 7.17996 15.2043 7.20176C15.2225 7.33649 15.2397 7.46306 15.2489 7.6294L20.132 2.73352ZM14.2153 13.4624C14.361 13.3196 14.6833 13.2187 14.8289 13.2552C15.223 13.355 15.299 13.9208 15.2937 14.3653C15.2755 15.6559 15.2316 16.5534 15.163 17.1085L15.1148 17.5659L15.114 17.5745C15.0682 18.0346 15.0208 18.5107 14.8857 19.0186C14.528 20.2189 13.5717 20.9984 12.4859 20.9984C12.4495 20.9984 12.4142 20.9984 12.3778 20.9973C11.7781 20.9973 11.1259 20.6366 10.7565 20.322L9.44041 19.3009C8.94139 18.9284 9.0881 18.3336 9.36866 17.9889C9.57834 17.7322 12.1009 15.4107 13.4225 14.1945C13.8693 13.7833 14.1788 13.4985 14.2153 13.4624Z" fill="currentColor"/>
</svg>
